<?xml version="1.0" standalone="no"?>
<!DOCTYPE svg PUBLIC "-//W3C//DTD SVG 20010904//EN"
 "http://www.w3.org/TR/2001/REC-SVG-20010904/DTD/svg10.dtd">
<svg version="1.0" xmlns="http://www.w3.org/2000/svg"
 width="200.000000pt" height="200.000000pt" viewBox="0 0 200.000000 200.000000"
 preserveAspectRatio="xMidYMid meet">
<metadata>
Created by potrace 1.10, written by Peter Selinger 2001-2011
</metadata>
<g transform="translate(0.000000,200.000000) scale(0.100000,-0.100000)"
fill="#9370d8" stroke="none">
<path d="M912 1659 c-150 -19 -276 -82 -387 -194 -64 -63 -89 -98 -122 -165
-71 -146 -90 -294 -57 -443 53 -243 248 -442 494 -503 97 -24 282 -15 372 18
159 60 293 175 365 313 63 121 77 181 77 315 0 134 -14 194 -77 315 -122 236
-399 379 -665 344z m178 -44 c38 -5 49 -12 70 -42 22 -32 25 -47 24 -117 0
-121 -27 -181 -123 -277 -62 -62 -94 -85 -171 -122 -112 -54 -209 -80 -260
-68 -126 29 -221 154 -195 258 l7 28 13 -32 c7 -17 25 -39 39 -49 39 -25 148
-15 220 20 144 71 244 276 178 366 l-22 29 33 5 c88 15 81 15 187 1z m199 -61
c68 -37 83 -55 89 -112 10 -108 -44 -248 -127 -325 -59 -55 -108 -81 -203
-106 -90 -24 -244 -39 -234 -22 4 6 17 11 29 11 60 0 220 109 292 197 70 86
90 135 93 238 3 82 2 93 -21 127 l-25 36 29 -8 c15 -5 51 -21 78 -36z m-445
10 c74 -74 -40 -267 -191 -324 -30 -11 -69 -20 -87 -20 -43 0 -86 33 -86 68 0
133 289 352 364 276z m616 -239 c11 -66 9 -94 -12 -190 -27 -126 -129 -255
-230 -293 -76 -28 -161 -35 -258 -22 -47 6 -89 14 -94 17 -5 3 15 14 45 23 76
24 179 78 288 150 154 103 216 209 216 367 l0 83 17 -34 c9 -18 22 -64 28
-101z m56 -21 c86 -194 95 -403 24 -550 -53 -109 -149 -173 -291 -195 -94 -15
-189 3 -362 67 -166 63 -226 66 -372 19 -17 -5 -26 4 -53 50 -17 31 -32 60
-32 65 0 15 102 51 168 59 75 9 189 0 302 -24 171 -36 284 -29 373 25 99 60
193 194 218 310 11 53 8 179 -6 213 -4 9 -4 17 -1 17 4 0 18 -25 32 -56z
m-1056 -269 c73 -75 228 -107 422 -87 62 6 138 18 168 26 30 8 57 13 58 11 6
-6 -77 -46 -186 -90 -92 -37 -109 -41 -150 -34 -115 19 -219 7 -305 -37 -27
-13 -50 -24 -51 -24 -6 0 -25 78 -31 129 -4 29 -4 97 0 150 l8 96 17 -53 c10
-30 32 -69 50 -87z m394 -440 c64 -25 150 -51 191 -58 41 -6 75 -14 75 -18 0
-6 -156 -34 -250 -45 -109 -12 -220 22 -309 95 l-45 36 55 17 c94 29 152 24
283 -27z m531 -51 c-50 -42 -206 -114 -280 -129 -89 -19 -173 -19 -269 0 -120
22 -114 30 22 31 108 1 141 5 217 29 50 15 125 34 168 41 43 8 95 23 115 34
51 27 63 24 27 -6z"/>
</g>
</svg>
